<?xml version="1.0" encoding="utf-8"?>
<!-- Generator: Adobe Illustrator 19.0.0, SVG Export Plug-In . SVG Version: 6.00 Build 0)  -->
<svg version="1.1" id="Layer_1" xmlns="http://www.w3.org/2000/svg" xmlns:xlink="http://www.w3.org/1999/xlink" x="0px" y="0px"
	 viewBox="0 0 116.5 29.7" style="enable-background:new 0 0 116.5 29.7;" xml:space="preserve">
<g>
	<path d="M33.6,8.6c0.6,0,1,0,1.2,0.1c0.2,0.1,0.4,0.2,0.5,0.4c0.1,0.2,0.1,0.5,0.1,1v15.3c0,1.1-0.1,1.8-0.4,2.3
		c-0.3,0.5-0.7,0.7-1.4,0.7c-0.2,0-0.3,0-0.4-0.1c-0.1-0.1-0.1-0.1-0.1-0.2c0-0.1,0.1-0.2,0.2-0.5c0.2-0.2,0.2-0.5,0.2-0.9
		c0-0.5-0.2-0.9-0.5-1.2c-0.3-0.3-0.7-0.4-1.1-0.4c-0.5,0-0.9,0.2-1.2,0.5c-0.3,0.3-0.5,0.8-0.5,1.4c0,0.7,0.3,1.2,0.8,1.6
		c0.6,0.4,1.4,0.6,2.5,0.6c1.4,0,2.6-0.3,3.4-0.8c0.8-0.5,1.4-1.3,1.7-2.4c0.3-1,0.5-2.4,0.5-4.1v-12c0-0.4,0-0.8,0.1-0.9
		c0.1-0.2,0.2-0.3,0.5-0.4C40,8.7,40.4,8.6,41,8.6V7.8h-7.3V8.6z"/>
	<path d="M48,12.2c-2.1,0-3.6,0.5-4.7,1.5s-1.5,2.5-1.5,4.6c0,2.1,0.5,3.6,1.5,4.6c1,1,2.5,1.5,4.6,1.5c2.1,0,3.6-0.5,4.6-1.5
		c1-1,1.5-2.5,1.5-4.6c0-2.1-0.5-3.6-1.5-4.6C51.6,12.7,50.1,12.2,48,12.2z M49.8,22.3c-0.4,0.8-1,1.2-1.8,1.2
		c-0.9,0-1.5-0.4-1.9-1.2c-0.4-0.8-0.6-2.1-0.6-4c0-1.8,0.2-3.1,0.6-4c0.4-0.9,1-1.3,1.9-1.3c0.9,0,1.5,0.4,1.9,1.3
		c0.4,0.9,0.6,2.3,0.6,4.2C50.4,20.3,50.2,21.6,49.8,22.3z"/>
	<path d="M68.2,23c-0.1-0.1-0.1-0.3-0.1-0.6v-10H67L63.1,13v0.8h0.8c0.3,0,0.5,0.1,0.6,0.2c0.1,0.1,0.1,0.4,0.1,0.8v6.9
		c-0.4,0.4-0.8,0.7-1.2,0.9c-0.3,0.2-0.7,0.3-1.1,0.3c-0.6,0-1-0.2-1.4-0.6c-0.3-0.4-0.5-1.1-0.5-2v-7.9h-1.1L55.5,13v0.8h0.8
		c0.3,0,0.5,0.1,0.6,0.2c0.1,0.1,0.1,0.4,0.1,0.8v5.9c0,1.3,0.3,2.2,0.9,2.9c0.6,0.6,1.5,1,2.6,1c1.5,0,2.9-0.6,4.1-1.9h0.1v1.6h4.9
		v-0.8c-0.5,0-0.8,0-1-0.1C68.4,23.2,68.3,23.1,68.2,23z"/>
	<path d="M78.5,12.3c-1.3,0-2.3,0.8-3.1,2.4h-0.1v-2.3h-1.1L70.4,13v0.8h0.8c0.3,0,0.5,0.1,0.6,0.2c0.1,0.1,0.1,0.4,0.1,0.8v7.3
		c0,0.4,0,0.6-0.1,0.8c-0.1,0.2-0.2,0.3-0.4,0.3c-0.2,0.1-0.6,0.1-1,0.1v0.8h7v-0.8c-0.6,0-1,0-1.2-0.1c-0.3-0.1-0.4-0.2-0.5-0.3
		c-0.1-0.2-0.1-0.4-0.1-0.8v-4.6h0c0-0.6,0.1-1.1,0.3-1.8c0.2-0.6,0.5-1.1,0.8-1.5c0.3-0.4,0.6-0.6,0.9-0.6c0.1,0,0.1,0,0.2,0.1
		c0,0,0.1,0.1,0.1,0.1s-0.1,0.2-0.2,0.3c-0.1,0.2-0.2,0.4-0.2,0.8c0,0.5,0.1,0.8,0.4,1.1c0.3,0.3,0.7,0.4,1.2,0.4
		c0.6,0,1-0.2,1.3-0.5c0.3-0.4,0.4-0.8,0.4-1.4c0-0.6-0.2-1.2-0.6-1.6C79.7,12.5,79.2,12.3,78.5,12.3z"/>
	<path d="M94.1,22.9C94,22.7,94,22.4,94,22.1v-6c0-1.3-0.3-2.3-0.9-2.9c-0.6-0.6-1.5-1-2.6-1c-0.8,0-1.6,0.2-2.2,0.5
		c-0.6,0.3-1.2,0.8-1.8,1.3h-0.1v-1.6h-1.1L81.3,13v0.8h0.8c0.3,0,0.5,0.1,0.6,0.2c0.1,0.1,0.1,0.4,0.1,0.8v7.3c0,0.4,0,0.6-0.1,0.8
		c-0.1,0.2-0.2,0.3-0.4,0.3c-0.2,0.1-0.6,0.1-1,0.1v0.8h6.4v-0.8c-0.4,0-0.7,0-0.9-0.1c-0.2,0-0.3-0.2-0.4-0.3
		c-0.1-0.2-0.1-0.4-0.1-0.8v-7.2c0.4-0.4,0.8-0.7,1.1-0.9c0.3-0.2,0.7-0.3,1.1-0.3c1.2,0,1.8,0.8,1.8,2.5v5.9c0,0.3,0,0.6-0.1,0.7
		c-0.1,0.1-0.2,0.2-0.3,0.3c-0.2,0-0.5,0.1-0.9,0.1v0.8h6.3v-0.8c-0.5,0-0.8,0-1-0.1C94.3,23.1,94.1,23,94.1,22.9z"/>
	<path d="M108,23c-0.2,0.1-0.3,0.1-0.6,0.1c-0.2,0-0.4-0.1-0.5-0.3c-0.1-0.2-0.2-0.6-0.2-1.2v-5.4c0-1.4-0.3-2.4-1-3
		c-0.7-0.6-1.7-1-3.1-1c-1.2,0-2.3,0.2-3.1,0.5c-0.8,0.3-1.4,0.7-1.8,1.1c-0.4,0.5-0.6,0.9-0.6,1.5c0,0.4,0.2,0.8,0.5,1.1
		c0.3,0.3,0.7,0.5,1.2,0.5c0.5,0,0.9-0.2,1.2-0.5c0.3-0.3,0.5-0.7,0.5-1.1c0-0.2,0-0.4-0.1-0.5c-0.1-0.1-0.2-0.3-0.3-0.4
		c-0.2-0.2-0.2-0.4-0.2-0.5c0-0.2,0.1-0.3,0.4-0.5c0.3-0.1,0.6-0.2,1-0.2c0.7,0,1.2,0.2,1.4,0.5c0.3,0.3,0.4,0.9,0.4,1.6v1.9
		c-2.1,0.4-3.8,1-5,1.8c-1.2,0.8-1.8,1.7-1.8,2.8c0,0.9,0.3,1.5,0.9,2c0.6,0.4,1.4,0.7,2.5,0.7c1.3,0,2.5-0.4,3.5-1.2
		c0.1,0.4,0.4,0.7,0.7,0.9c0.4,0.2,0.9,0.3,1.5,0.3c1.2,0,2.1-0.3,3-0.8l-0.3-0.7C108.3,22.9,108.2,23,108,23z M103.3,22.2
		c-0.6,0.5-1.2,0.7-1.8,0.7c-0.5,0-0.9-0.1-1.2-0.4c-0.3-0.3-0.4-0.7-0.4-1.3c0-0.7,0.3-1.3,0.8-1.8c0.5-0.5,1.4-0.9,2.5-1.2V22.2z"
		/>
	<path d="M114.7,23.2c-0.2-0.1-0.3-0.2-0.4-0.3c-0.1-0.2-0.1-0.4-0.1-0.8v-15h-1.1l-4,0.6v0.8h0.8c0.3,0,0.5,0.1,0.6,0.2
		c0.1,0.1,0.1,0.4,0.1,0.8v12.6c0,0.4,0,0.6-0.1,0.8c-0.1,0.2-0.2,0.3-0.4,0.3c-0.2,0.1-0.6,0.1-1.1,0.1v0.8h6.5v-0.8
		C115.3,23.3,114.9,23.3,114.7,23.2z"/>
	<path d="M9,0.9H0.9v0.8c0.6,0,1.1,0,1.3,0.1C2.4,1.8,2.6,2,2.7,2.2c0.1,0.2,0.1,0.5,0.1,0.9V15c0,0.4,0,0.8-0.1,0.9
		c-0.1,0.2-0.2,0.3-0.5,0.4c-0.3,0.1-0.7,0.1-1.4,0.1v0.8h7.3c3.1,0,5.5-0.7,7.1-2c1.6-1.3,2.4-3.4,2.4-6.4c0-2.7-0.7-4.7-2.2-6
		C14,1.6,11.8,0.9,9,0.9z M12.3,14.5c-0.8,1.2-2.2,1.8-4,1.8c-0.7,0-1.1-0.1-1.4-0.3c-0.2-0.2-0.3-0.6-0.3-1.2V2.7
		c0-0.4,0.1-0.6,0.4-0.8c0.3-0.1,0.7-0.2,1.5-0.2c3.4,0,5.1,2.4,5.1,7.1C13.5,11.4,13.1,13.3,12.3,14.5z"/>
	<path d="M28.3,15.9c-0.1-0.2-0.1-0.5-0.1-0.9V1.7h1c1,0,1.8,0.3,2.3,0.8C32,3,32.4,3.9,32.6,5.2h0.8V0.9H19.1l0,4.3h0.9
		C20.1,4,20.5,3.1,21,2.5c0.5-0.5,1.3-0.8,2.2-0.8h1.2V15c0,0.4,0,0.8-0.1,0.9c-0.1,0.2-0.2,0.3-0.5,0.3c-0.3,0.1-0.7,0.1-1.3,0.1
		v0.8h7.6v-0.8c-0.6,0-1,0-1.3-0.1C28.5,16.2,28.4,16.1,28.3,15.9z"/>
</g>
</svg>
