<?xml version="1.0" encoding="UTF-8"?>
<svg width="131px" height="23px" viewBox="0 0 131 23" version="1.1" xmlns="http://www.w3.org/2000/svg" xmlns:xlink="http://www.w3.org/1999/xlink">
    <!-- Generator: Sketch 58 (84663) - https://sketch.com -->
    <title>mastercard</title>
    <desc>Created with Sketch.</desc>
    <g id="Page-1" stroke="none" stroke-width="1" fill="none" fill-rule="evenodd">
        <g id="mastercard">
            <g id="Group">
                <circle id="Oval" fill="#F79F1A" cx="25.5" cy="11.5" r="11.2"></circle>
                <circle id="Oval" fill="#EA001B" cx="11.7" cy="11.5" r="11.2"></circle>
                <path d="M18.6,2.7 C16,4.8 14.3,7.9 14.3,11.5 C14.3,15.1 16,18.3 18.6,20.3 C21.2,18.2 22.9,15.1 22.9,11.5 C22.9,8 21.2,4.8 18.6,2.7 Z" id="Path" fill="#FF5F01"></path>
                <path d="M36.1,17.5 L36.1,17.2 L36.2,17.2 L36.2,17.1 L35.9,17.1 L35.9,17.2 L36,17.2 L36.1,17.5 L36.1,17.5 Z M36.7,17.5 L36.7,17.1 L36.6,17.1 L36.5,17.4 L36.4,17.1 L36.3,17.1 L36.3,17.5 L36.4,17.5 L36.4,17.2 L36.5,17.5 L36.6,17.5 L36.7,17.2 L36.7,17.5 L36.7,17.5 Z" id="Shape" fill="#F79F1A" fill-rule="nonzero"></path>
            </g>
            <g id="Group" transform="translate(44.000000, 4.000000)" fill="#000000" fill-rule="nonzero">
                <path d="M2.5,11.1 L0.9,11.1 L0.9,3.7 L2.5,3.7 L2.5,4.6 C2.5,4.6 3.9,3.5 4.7,3.5 C6.3,3.5 7.2,4.9 7.2,4.9 C7.2,4.9 8,3.5 9.7,3.5 C12.3,3.5 12.6,5.8 12.6,5.8 L12.6,11 L11.1,11 L11.1,6.4 C11.1,6.4 11.1,5 9.4,5 C7.7,5 7.5,6.4 7.5,6.4 L7.5,11 L5.9,11 L5.9,6.3 C5.9,6.3 5.7,4.8 4.3,4.8 C2.4,4.8 2.4,6.3 2.4,6.3 L2.5,11.1 Z" id="Path"></path>
                <path d="M51,3.5 C50.2,3.5 48.8,4.6 48.8,4.6 L48.8,3.7 L47.2,3.7 L47.2,11.1 L48.8,11.1 L48.8,6.4 C48.8,6.4 48.8,4.9 50.7,4.9 C51,4.9 51.3,5 51.5,5.1 L51.5,5.1 L52,3.7 C51.8,3.6 51.4,3.5 51,3.5 Z" id="Path"></path>
                <path d="M73.5,3.5 C72.7,3.5 71.3,4.6 71.3,4.6 L71.3,3.7 L69.7,3.7 L69.7,11.1 L71.3,11.1 L71.3,6.4 C71.3,6.4 71.3,4.9 73.2,4.9 C73.5,4.9 73.8,5 74,5.1 L74,5.1 L74.5,3.7 C74.2,3.6 73.9,3.5 73.5,3.5 Z" id="Path"></path>
                <path d="M18.1,5 C19.4,5 20.4,6.1 20.4,7.5 C20.4,8.9 19.4,10 18.1,10 C16.8,10 15.8,8.9 15.8,7.5 C15.8,6.1 16.8,5 18.1,5 Z M17.8,3.5 C15.4,3.5 14.1,5.6 14.1,7.4 C14.1,9.2 15.5,11.4 17.8,11.4 C19.1,11.4 20.2,10.4 20.2,10.4 L20.2,11.2 L21.8,11.2 L21.8,3.8 L20.2,3.8 L20.2,4.7 C20.3,4.6 19.2,3.5 17.8,3.5 Z" id="Shape"></path>
                <path d="M63.9,5 C65.2,5 66.2,6.1 66.2,7.5 C66.2,8.9 65.2,10 63.9,10 C62.6,10 61.6,8.9 61.6,7.5 C61.6,6.1 62.6,5 63.9,5 Z M63.6,3.5 C61.2,3.5 60,5.6 59.9,7.4 C59.9,9.2 61.3,11.4 63.6,11.4 C64.9,11.4 66,10.4 66,10.4 L66,11.2 L67.6,11.2 L67.6,3.8 L66,3.8 L66,4.7 C66.1,4.6 65,3.5 63.6,3.5 Z" id="Shape"></path>
                <path d="M79,5 C80.3,5 81.3,6.1 81.3,7.5 C81.3,8.9 80.3,10 79,10 C77.7,10 76.7,8.9 76.7,7.5 C76.6,6.1 77.7,5 79,5 Z M78.7,3.5 C76.3,3.5 75,5.6 75,7.4 C75,9.2 76.4,11.4 78.7,11.4 C80,11.4 81.1,10.4 81.1,10.4 L81.1,11.2 L82.7,11.2 L82.7,0.8 L81.1,0.8 L81.1,4.7 C81.1,4.6 80.1,3.5 78.7,3.5 Z" id="Shape"></path>
                <path d="M26.6,11.4 C25,11.4 23.5,10.4 23.5,10.4 L24.2,9.3 C24.2,9.3 25.6,10 26.6,10 C27.3,10 28.4,9.8 28.4,9.1 C28.4,8.4 26.5,8.2 26.5,8.2 C26.5,8.2 23.7,8.2 23.7,5.9 C23.7,4.5 25.1,3.5 26.9,3.5 C27.9,3.5 29.9,4.4 29.9,4.4 L29.1,5.6 C29.1,5.6 27.6,5 26.8,5 C26.1,5 25.3,5.3 25.3,5.9 C25.3,7.5 30,5.8 30,9 C30,11 28.1,11.4 26.6,11.4 Z" id="Path"></path>
                <path d="M32.6,1.5 L32.6,3.7 L31.2,3.7 L31.2,5.3 L32.6,5.3 L32.6,9 C32.6,9 32.5,11.5 35.2,11.5 C36,11.5 37.4,10.9 37.4,10.9 L36.8,9.3 C36.8,9.3 36.2,9.8 35.6,9.8 C34.3,9.8 34.4,9 34.4,9 L34.4,5.3 L37,5.3 L37,3.7 L34.4,3.7 L34.4,1.5 L32.6,1.5 Z" id="Path"></path>
                <path d="M41.9,5 C42,5 42,5 42.1,5 C44,5 44,6.8 44,6.8 L40.1,6.8 C40.1,6.8 40,5.1 41.9,5 Z M42.1,3.6 C39.5,3.6 38.3,5.7 38.3,7.5 C38.3,9.4 39.5,11.5 42.3,11.5 C43.5,11.5 45.2,10.4 45.2,10.4 L44.5,9.1 C44.5,9.1 43.3,9.9 42.3,9.9 C40.3,9.9 40.1,7.9 40.1,7.9 L45.5,7.9 C45.5,8 45.9,3.6 42.1,3.6 Z" id="Shape"></path>
                <path d="M58.3,9.1 L59,10.6 C59,10.6 57.8,11.4 56.5,11.4 C53.8,11.4 52.3,9.4 52.3,7.5 C52.3,4.5 54.7,3.6 56.3,3.6 C57.8,3.6 59,4.4 59,4.4 L58.2,5.9 C58.2,5.9 57.7,5.1 56.3,5.1 C54.9,5.1 54.1,6.3 54.1,7.5 C54.1,8.8 55,10 56.3,10 C57.4,9.9 58.3,9.1 58.3,9.1 Z" id="Path"></path>
                <path d="M86.1,10.6 C86.1,10.6 86.1,10.6 86.1,10.6 C86.2,10.6 86.2,10.7 86.2,10.7 C86.2,10.7 86.2,10.8 86.2,10.8 C86.2,10.8 86.1,10.8 86.1,10.8 L85.9,10.8 L85.9,10.6 L86.1,10.6 Z M86.1,10.5 L85.8,10.5 L85.8,11.2 L85.9,11.2 L85.9,10.9 L86,10.9 L86.2,11.2 L86.4,11.2 L86.2,10.9 C86.3,10.9 86.3,10.9 86.4,10.8 C86.4,10.8 86.5,10.7 86.5,10.7 C86.5,10.6 86.5,10.6 86.4,10.5 C86.2,10.5 86.2,10.5 86.1,10.5 Z M86,11.4 C85.8,11.4 85.7,11.3 85.6,11.2 C85.5,11.1 85.4,11 85.4,10.8 C85.4,10.6 85.5,10.5 85.6,10.4 C85.7,10.3 85.8,10.2 86,10.2 C86.2,10.2 86.3,10.3 86.4,10.4 C86.5,10.5 86.6,10.6 86.6,10.8 C86.6,11 86.5,11.1 86.4,11.2 C86.3,11.4 86.2,11.4 86,11.4 Z M86,10.1 C85.8,10.1 85.6,10.2 85.5,10.3 C85.4,10.4 85.3,10.6 85.3,10.8 C85.3,11 85.4,11.2 85.5,11.3 C85.6,11.4 85.8,11.5 86,11.5 C86.2,11.5 86.4,11.4 86.5,11.3 C86.6,11.2 86.7,11 86.7,10.8 C86.7,10.6 86.6,10.4 86.5,10.3 C86.4,10.2 86.2,10.1 86,10.1 Z" id="Shape"></path>
            </g>
        </g>
    </g>
</svg>