<?xml version="1.0" encoding="UTF-8"?>
<svg width="52px" height="17px" viewBox="0 0 52 17" version="1.1" xmlns="http://www.w3.org/2000/svg" xmlns:xlink="http://www.w3.org/1999/xlink">
    <!-- Generator: Sketch 58 (84663) - https://sketch.com -->
    <title>visa</title>
    <desc>Created with Sketch.</desc>
    <g id="Page-1" stroke="none" stroke-width="1" fill="none" fill-rule="evenodd">
        <g id="visa">
            <path d="M42.9,11 L45.1,5.1 L46.3,11 L42.9,11 Z M48,0.7 L44.7,0.7 C43.2,0.7 42.8,1.9 42.8,1.9 L36.7,16.5 L41,16.5 L41.9,14.2 L47.1,14.2 L47.6,16.5 L51.4,16.5 L48,0.7 Z M31.1,5.1 C31.1,3.3 35.1,3.5 36.9,4.5 L37.5,1.1 C37.5,1.1 35.7,0.4 33.8,0.4 C31.8,0.4 26.9,1.3 26.9,5.6 C26.9,9.7 32.6,9.7 32.6,11.9 C32.6,14 27.5,13.7 25.8,12.3 L25.2,15.9 C25.2,15.9 27,16.8 29.9,16.8 C32.8,16.8 37,15.3 37,11.4 C36.9,7.3 31.1,6.9 31.1,5.1 Z M15.1,0.7 L11.2,11.6 L10.7,9.3 L10.7,9.3 L10.6,8.8 C10.1,7.8 9,5.8 6.9,4.2 C6.3,3.7 5.7,3.3 5.1,2.9 L8.7,16.6 L13,16.6 L19.6,0.8 L15.1,0.8 L15.1,0.7 Z M21.1,0.7 L18.5,16.5 L22.6,16.5 L25.2,0.7 L21.1,0.7 Z" id="Shape" fill="#005BAC"></path>
            <path d="M9.3,2.2 C9.3,2.2 9.1,0.8 7.3,0.8 L0.7,0.8 L0.6,1.1 C0.6,1.1 3.8,1.7 6.8,4.2 C9.7,6.5 10.7,9.4 10.7,9.4 L9.3,2.2 Z" id="Path" fill="#F6AC1D"></path>
        </g>
    </g>
</svg>