<?xml version="1.0" encoding="UTF-8"?>
<svg width="18px" height="56px" viewBox="0 0 18 56" version="1.1" xmlns="http://www.w3.org/2000/svg" xmlns:xlink="http://www.w3.org/1999/xlink">
    <!-- Generator: Sketch 58 (84663) - https://sketch.com -->
    <title>Group 3</title>
    <desc>Created with Sketch.</desc>
    <g id="Page-1" stroke="none" stroke-width="1" fill="none" fill-rule="evenodd">
        <g id="icon_set_1_5_final" transform="translate(-181.000000, -77.000000)" fill="#000000">
            <g id="Group-3" transform="translate(181.900000, 77.747000)">
                <polygon id="Fill-1" points="14.2826 2.8458 14.2826 4.3458 14.8786 4.3458 14.8786 17.6678 4.3446 17.6678 4.3446 17.0728 2.8446 17.0728 2.8446 19.1678 16.3786 19.1678 16.3786 2.8458"></polygon>
                <path d="M1.5,14.822 L12.033,14.822 L12.033,1.5 L1.5,1.5 L1.5,14.822 Z M1.42108547e-14,16.322 L13.533,16.322 L13.533,0 L1.42108547e-14,0 L1.42108547e-14,16.322 Z" id="Fill-2"></path>
                <polygon id="Fill-3" points="14.2826 38.3941 14.2826 39.8941 14.8786 39.8941 14.8786 53.2161 4.3446 53.2161 4.3446 52.6211 2.8446 52.6211 2.8446 54.7161 16.3786 54.7161 16.3786 38.3941"></polygon>
                <polygon id="Fill-4" points="1.42108547e-14 51.87 13.533 51.87 13.533 35.548 1.42108547e-14 35.548"></polygon>
            </g>
        </g>
    </g>
</svg>