<?xml version="1.0" encoding="UTF-8"?>
<svg width="20px" height="56px" viewBox="0 0 20 56" version="1.1" xmlns="http://www.w3.org/2000/svg" xmlns:xlink="http://www.w3.org/1999/xlink">
    <!-- Generator: Sketch 58 (84663) - https://sketch.com -->
    <title>Group</title>
    <desc>Created with Sketch.</desc>
    <g id="Page-1" stroke="none" stroke-width="1" fill="none" fill-rule="evenodd">
        <g id="icon_set_1_5_final" transform="translate(-279.000000, -77.000000)" fill="#000000">
            <g id="Group-25" transform="translate(0.000000, -0.333000)">
                <g id="Group" transform="translate(279.694900, 78.063600)">
                    <path d="M9.6,17.701 C5.134,17.701 1.5,14.068 1.5,9.601 C1.5,5.134 5.134,1.5 9.6,1.5 C14.067,1.5 17.701,5.134 17.701,9.601 C17.701,14.068 14.067,17.701 9.6,17.701 M9.6,0 C4.307,0 0,4.307 0,9.601 C0,14.895 4.307,19.201 9.6,19.201 C14.894,19.201 19.201,14.895 19.201,9.601 C19.201,4.307 14.894,0 9.6,0" id="Fill-9"></path>
                    <polygon id="Fill-11" points="8.0697 11.6034 5.5367 9.0694 4.4757 10.1294 8.0697 13.7244 14.7257 7.0674 13.6657 6.0064"></polygon>
                    <path d="M8.0697,49.2733 L4.4757,45.6783 L5.5367,44.6183 L8.0697,47.1523 L13.6657,41.5553 L14.7257,42.6163 L8.0697,49.2733 Z M9.5997,35.5483 C4.3067,35.5483 0.0007,39.8563 0.0007,45.1503 C0.0007,50.4433 4.3067,54.7503 9.5997,54.7503 C14.8937,54.7503 19.2007,50.4433 19.2007,45.1503 C19.2007,39.8563 14.8937,35.5483 9.5997,35.5483 L9.5997,35.5483 Z" id="Fill-13"></path>
                </g>
            </g>
        </g>
    </g>
</svg>