<?xml version="1.0" encoding="UTF-8"?>
<svg width="19px" height="54px" viewBox="0 0 19 54" version="1.1" xmlns="http://www.w3.org/2000/svg" xmlns:xlink="http://www.w3.org/1999/xlink">
    <!-- Generator: Sketch 58 (84663) - https://sketch.com -->
    <title>Group 4</title>
    <desc>Created with Sketch.</desc>
    <defs>
        <polygon id="path-1" points="0 210.667 377.333 210.667 377.333 0 0 0"></polygon>
    </defs>
    <g id="Page-1" stroke="none" stroke-width="1" fill="none" fill-rule="evenodd">
        <g id="icon_set_1_5_final" transform="translate(-131.000000, -78.000000)">
            <g id="Group-25" transform="translate(0.000000, -0.333000)">
                <g id="Group-4" transform="translate(0.000000, 0.333000)">
                    <polygon id="Fill-15" fill="#000000" points="136.3623 115.8818 144.6093 115.8818 144.6093 117.6568 146.1093 117.6568 146.1093 114.3818 134.8623 114.3818 134.8623 117.6568 136.3623 117.6568"></polygon>
                    <mask id="mask-2" fill="white">
                        <use xlink:href="#path-1"></use>
                    </mask>
                    <g id="Clip-18"></g>
                    <path d="M136.362,129.878 L144.609,129.878 L144.609,125.478 L136.362,125.478 L136.362,129.878 Z M148.039,118.407 L132.936,118.407 C131.954,118.407 131.155,119.206 131.155,120.187 L131.155,125.755 C131.155,126.736 131.954,127.534 132.936,127.534 L134.862,127.534 L134.862,131.378 L146.109,131.378 L146.109,127.534 L148.039,127.534 C149.02,127.534 149.816,126.736 149.816,125.755 L149.816,120.187 C149.816,119.206 149.02,118.407 148.039,118.407 L148.039,118.407 Z" id="Fill-17" fill="#000000" mask="url(#mask-2)"></path>
                    <polygon id="Fill-19" fill="#000000" mask="url(#mask-2)" points="136.3623 80.333 144.6093 80.333 144.6093 82.108 146.1093 82.108 146.1093 78.833 134.8623 78.833 134.8623 82.108 136.3623 82.108"></polygon>
                    <path d="M148.3164,90.2061 C148.3164,90.3601 148.1924,90.4851 148.0394,90.4851 L146.1094,90.4851 L146.1094,88.4291 L134.8624,88.4291 L134.8624,90.4851 L132.9354,90.4851 C132.7814,90.4851 132.6554,90.3601 132.6554,90.2061 L132.6554,84.6381 C132.6554,84.4841 132.7814,84.3581 132.9354,84.3581 L148.0394,84.3581 C148.1924,84.3581 148.3164,84.4841 148.3164,84.6381 L148.3164,90.2061 Z M136.3624,94.3291 L144.6094,94.3291 L144.6094,89.9291 L136.3624,89.9291 L136.3624,94.3291 Z M148.0394,82.8581 L132.9354,82.8581 C131.9544,82.8581 131.1554,83.6571 131.1554,84.6381 L131.1554,90.2061 C131.1554,91.1871 131.9544,91.9851 132.9354,91.9851 L134.8624,91.9851 L134.8624,95.8291 L146.1094,95.8291 L146.1094,91.9851 L148.0394,91.9851 C149.0194,91.9851 149.8164,91.1871 149.8164,90.2061 L149.8164,84.6381 C149.8164,83.6571 149.0194,82.8581 148.0394,82.8581 L148.0394,82.8581 Z" id="Fill-20" fill="#000000" mask="url(#mask-2)"></path>
                </g>
            </g>
        </g>
    </g>
</svg>