<?xml version="1.0" encoding="UTF-8"?>
<svg width="17px" height="58px" viewBox="0 0 17 58" version="1.1" xmlns="http://www.w3.org/2000/svg" xmlns:xlink="http://www.w3.org/1999/xlink">
    <!-- Generator: Sketch 58 (84663) - https://sketch.com -->
    <title>Group 2</title>
    <desc>Created with Sketch.</desc>
    <g id="Page-1" stroke="none" stroke-width="1" fill="none" fill-rule="evenodd">
        <g id="icon_set_1_5_final" transform="translate(-231.000000, -76.000000)" fill="#000000">
            <g id="Group-25" transform="translate(0.000000, -0.333000)">
                <g id="Group-2" transform="translate(231.486300, 76.694600)">
                    <path d="M2.752,9.115 C1.939,10.246 1.5,11.599 1.5,13.019 C1.5,16.716 4.508,19.724 8.205,19.724 C9.375,19.724 10.528,19.416 11.541,18.834 C13.62,17.639 14.911,15.411 14.911,13.019 C14.911,11.365 14.269,9.761 13.102,8.502 C12.892,8.276 12.668,8.067 12.442,7.86 L12.261,7.696 C11.953,7.418 11.646,7.139 11.36,6.839 C10.894,6.346 10.472,5.804 10.106,5.228 C9.885,4.878 9.697,4.542 9.531,4.198 C9.338,3.796 9.17,3.38 9.03,2.953 C9.024,2.961 9.018,2.969 9.011,2.976 C8.242,3.886 7.642,4.909 7.227,6.019 C6.797,7.169 6.579,8.38 6.579,9.617 C6.579,9.87 6.591,10.121 6.61,10.37 L6.689,11.398 L5.687,11.156 C4.47,10.862 3.432,10.128 2.752,9.115 M8.205,21.224 C3.681,21.224 0,17.543 0,13.019 C0,10.841 0.844,8.791 2.377,7.245 L3.214,6.4 L3.615,7.52 C3.888,8.281 4.41,8.907 5.083,9.308 C5.117,7.998 5.365,6.717 5.822,5.493 C6.297,4.222 6.984,3.049 7.866,2.007 C8.199,1.614 8.553,1.245 8.918,0.911 L9.916,-7.10542736e-15 L10.161,1.329 C10.305,2.104 10.547,2.85 10.883,3.547 C11.029,3.851 11.194,4.142 11.373,4.426 C11.687,4.919 12.049,5.385 12.45,5.808 C12.707,6.08 12.987,6.331 13.266,6.582 L13.453,6.752 C13.711,6.989 13.966,7.227 14.202,7.484 C15.626,9.02 16.411,10.987 16.411,13.019 C16.411,15.947 14.832,18.673 12.289,20.135 C11.049,20.847 9.637,21.224 8.205,21.224" id="Fill-5"></path>
                    <path d="M14.2022,43.0325 C13.9662,42.7755 13.7112,42.5375 13.4532,42.3005 L13.2652,42.1315 C12.9872,41.8805 12.7072,41.6285 12.4502,41.3565 C12.0492,40.9335 11.6862,40.4685 11.3732,39.9745 C11.1942,39.6915 11.0292,39.3995 10.8832,39.0955 C10.5472,38.3995 10.3052,37.6535 10.1612,36.8775 L9.9162,35.5485 L8.9182,36.4605 C8.5532,36.7935 8.1992,37.1625 7.8662,37.5555 C6.9842,38.5975 6.2972,39.7705 5.8222,41.0425 C5.3652,42.2655 5.1172,43.5475 5.0832,44.8575 C4.4102,44.4555 3.8882,43.8295 3.6152,43.0685 L3.2142,41.9485 L2.3772,42.7935 C0.8442,44.3395 0.0002,46.3895 0.0002,48.5675 C0.0002,53.0925 3.6812,56.7725 8.2052,56.7725 C9.6372,56.7725 11.0492,56.3965 12.2892,55.6835 C14.8322,54.2215 16.4112,51.4955 16.4112,48.5675 C16.4112,46.5355 15.6262,44.5695 14.2022,43.0325" id="Fill-7"></path>
                </g>
            </g>
        </g>
    </g>
</svg>